@startuml
class Comite
class Persona
class Coordinador

Coordinador --|> Persona
Persona"2..*" --o "0..*" Comite : integra
Coordinador --* "1..*" Comite : coordina

@enduml

Un comité esta integrado por dos o más personas. Una persona puede o no pertenecer a
comités. Cada comité tiene un coordinador que forma parte del comité y una misma
persona puede coordinar más de un comité.